<?xml version="1.0" standalone="no"?><!DOCTYPE svg PUBLIC "-//W3C//DTD SVG 1.1//EN" "http://www.w3.org/Graphics/SVG/1.1/DTD/svg11.dtd"><svg t="1552617823744" class="icon" style="" viewBox="0 0 1024 1024" version="1.1" xmlns="http://www.w3.org/2000/svg" p-id="5690" xmlns:xlink="http://www.w3.org/1999/xlink" width="32" height="32"><defs><style type="text/css"></style></defs><path d="M512 512m-512 0a512 512 0 1 0 1024 0 512 512 0 1 0-1024 0Z" fill="#F8E294" p-id="5691"></path><path d="M65.330466 592.194982a511.816487 511.816487 0 0 0 20.92043 144.97491A481.72043 481.72043 0 1 0 819.2 140.937634 512 512 0 0 0 65.330466 592.194982z" fill="#F6D65D" p-id="5692"></path><path d="M427.217204 967.111111A602.104659 602.104659 0 0 1 256.917563 943.25448a489.244444 489.244444 0 0 0 747.630107-417.858064A602.471685 602.471685 0 0 1 427.217204 967.111111z" fill="#F2C13A" p-id="5693"></path><path d="M330.689606 388.312545m-55.237276 0a55.237276 55.237276 0 1 0 110.474552 0 55.237276 55.237276 0 1 0-110.474552 0Z" fill="#582A14" p-id="5694"></path><path d="M673.124014 388.312545m-55.237276 0a55.237276 55.237276 0 1 0 110.474552 0 55.237276 55.237276 0 1 0-110.474552 0Z" fill="#582A14" p-id="5695"></path><path d="M395.338178 787.891808l172.84427-172.844269 42.562252 42.562252-172.844269 172.844269-42.562253-42.562252Z" fill="#C44F1C" p-id="5696"></path><path d="M438.1542 615.195653l172.844269 172.844269-42.562252 42.562252-172.84427-172.844269 42.562253-42.562252Z" fill="#C44F1C" p-id="5697"></path><path d="M939.767742 230.858781a511.816487 511.816487 0 1 0 84.048745 281.141219 511.449462 511.449462 0 0 0-84.048745-281.141219zM512 993.72043A481.72043 481.72043 0 1 1 993.72043 512 482.270968 482.270968 0 0 1 512 993.72043z" fill="#D98613" p-id="5698"></path></svg>