<?xml version="1.0" standalone="no"?><!DOCTYPE svg PUBLIC "-//W3C//DTD SVG 1.1//EN" "http://www.w3.org/Graphics/SVG/1.1/DTD/svg11.dtd"><svg t="1552617830261" class="icon" style="" viewBox="0 0 1024 1024" version="1.1" xmlns="http://www.w3.org/2000/svg" p-id="5959" xmlns:xlink="http://www.w3.org/1999/xlink" width="32" height="32"><defs><style type="text/css"></style></defs><path d="M512 512m-512 0a512 512 0 1 0 1024 0 512 512 0 1 0-1024 0Z" fill="#F8E294" p-id="5960"></path><path d="M65.330466 592.194982a511.816487 511.816487 0 0 0 20.92043 144.97491A481.72043 481.72043 0 1 0 819.2 140.937634 512 512 0 0 0 65.330466 592.194982z" fill="#F6D65D" p-id="5961"></path><path d="M427.217204 967.111111A602.104659 602.104659 0 0 1 256.917563 943.25448a489.244444 489.244444 0 0 0 747.630107-417.858064A602.471685 602.471685 0 0 1 427.217204 967.111111z" fill="#F2C13A" p-id="5962"></path><path d="M939.767742 230.858781a511.816487 511.816487 0 1 0 84.048745 281.141219 511.449462 511.449462 0 0 0-84.048745-281.141219zM512 993.72043A481.72043 481.72043 0 1 1 993.72043 512 482.270968 482.270968 0 0 1 512 993.72043z" fill="#D98613" p-id="5963"></path><path d="M387.394982 378.402867a55.053763 55.053763 0 1 1-43.30896-43.30896 55.053763 55.053763 0 0 1 43.30896 43.30896zM729.829391 378.402867a55.053763 55.053763 0 1 1-43.308961-43.30896 55.053763 55.053763 0 0 1 43.308961 43.30896z" fill="#582A14" p-id="5964"></path><path d="M213.383504 645.471017l574.111448-102.574996 10.58672 59.253793-574.111448 102.574996-10.58672-59.253793Z" fill="#C44F1C" p-id="5965"></path></svg>